TITLE ""
FILE "1Q_t_1568-1577.mp3" MP3
  TRACK 01 AUDIO
    TITLE "1Q_t_1568-1577_01"
    INDEX 01 00:00:00
  TRACK 02 AUDIO
    TITLE "1Q_t_1568-1577_02"
    INDEX 01 00:01:39
  TRACK 03 AUDIO
    TITLE "1Q_t_1568-1577_03"
    INDEX 01 00:01:47
  TRACK 04 AUDIO
    TITLE "1Q_t_1568-1577_04"
    INDEX 01 00:03:38
  TRACK 05 AUDIO
    TITLE "1Q_t_1568-1577_05"
    INDEX 01 00:03:44
  TRACK 06 AUDIO
    TITLE "1Q_t_1568-1577_06"
    INDEX 01 00:08:47
  TRACK 07 AUDIO
    TITLE "1Q_t_1568-1577_07"
    INDEX 01 00:09:21
  TRACK 08 AUDIO
    TITLE "1Q_t_1568-1577_08"
    INDEX 01 00:10:30
  TRACK 09 AUDIO
    TITLE "1Q_t_1568-1577_09"
    INDEX 01 00:10:38
  TRACK 10 AUDIO
    TITLE "1Q_t_1568-1577_10"
    INDEX 01 00:11:47
  TRACK 11 AUDIO
    TITLE "1Q_t_1568-1577_11"
    INDEX 01 00:11:53
  TRACK 12 AUDIO
    TITLE "1Q_t_1568-1577_12"
    INDEX 01 00:16:19
  TRACK 13 AUDIO
    TITLE "1Q_t_1568-1577_13"
    INDEX 01 00:16:64
  TRACK 14 AUDIO
    TITLE "1Q_t_1568-1577_14"
    INDEX 01 00:17:70
  TRACK 15 AUDIO
    TITLE "1Q_t_1568-1577_15"
    INDEX 01 00:17:73
  TRACK 16 AUDIO
    TITLE "1Q_t_1568-1577_16"
    INDEX 01 00:19:63
  TRACK 17 AUDIO
    TITLE "1Q_t_1568-1577_17"
    INDEX 01 00:19:70
  TRACK 18 AUDIO
    TITLE "1Q_t_1568-1577_18"
    INDEX 01 00:24:13
  TRACK 19 AUDIO
    TITLE "1Q_t_1568-1577_19"
    INDEX 01 00:24:56
  TRACK 20 AUDIO
    TITLE "1Q_t_1568-1577_20"
    INDEX 01 00:26:04
  TRACK 21 AUDIO
    TITLE "1Q_t_1568-1577_21"
    INDEX 01 00:26:14
  TRACK 22 AUDIO
    TITLE "1Q_t_1568-1577_22"
    INDEX 01 00:28:32
  TRACK 23 AUDIO
    TITLE "1Q_t_1568-1577_23"
    INDEX 01 00:28:40
  TRACK 24 AUDIO
    TITLE "1Q_t_1568-1577_24"
    INDEX 01 00:32:46
  TRACK 25 AUDIO
    TITLE "1Q_t_1568-1577_25"
    INDEX 01 00:33:16
  TRACK 26 AUDIO
    TITLE "1Q_t_1568-1577_26"
    INDEX 01 00:34:19
  TRACK 27 AUDIO
    TITLE "1Q_t_1568-1577_27"
    INDEX 01 00:34:27
  TRACK 28 AUDIO
    TITLE "1Q_t_1568-1577_28"
    INDEX 01 00:37:55
  TRACK 29 AUDIO
    TITLE "1Q_t_1568-1577_29"
    INDEX 01 00:37:60
  TRACK 30 AUDIO
    TITLE "1Q_t_1568-1577_30"
    INDEX 01 00:42:30
  TRACK 31 AUDIO
    TITLE "1Q_t_1568-1577_31"
    INDEX 01 00:43:04
  TRACK 32 AUDIO
    TITLE "1Q_t_1568-1577_32"
    INDEX 01 00:44:27
  TRACK 33 AUDIO
    TITLE "1Q_t_1568-1577_33"
    INDEX 01 00:44:35
  TRACK 34 AUDIO
    TITLE "1Q_t_1568-1577_34"
    INDEX 01 00:46:67
  TRACK 35 AUDIO
    TITLE "1Q_t_1568-1577_35"
    INDEX 01 00:46:75
  TRACK 36 AUDIO
    TITLE "1Q_t_1568-1577_36"
    INDEX 01 00:50:61
  TRACK 37 AUDIO
    TITLE "1Q_t_1568-1577_37"
    INDEX 01 00:51:33
  TRACK 38 AUDIO
    TITLE "1Q_t_1568-1577_38"
    INDEX 01 00:52:44
  TRACK 39 AUDIO
    TITLE "1Q_t_1568-1577_39"
    INDEX 01 00:52:52
  TRACK 40 AUDIO
    TITLE "1Q_t_1568-1577_40"
    INDEX 01 00:53:63
  TRACK 41 AUDIO
    TITLE "1Q_t_1568-1577_41"
    INDEX 01 00:53:69
  TRACK 42 AUDIO
    TITLE "1Q_t_1568-1577_42"
    INDEX 01 00:58:45
  TRACK 43 AUDIO
    TITLE "1Q_t_1568-1577_43"
    INDEX 01 00:59:21
  TRACK 44 AUDIO
    TITLE "1Q_t_1568-1577_44"
    INDEX 01 01:00:54
  TRACK 45 AUDIO
    TITLE "1Q_t_1568-1577_45"
    INDEX 01 01:00:61
  TRACK 46 AUDIO
    TITLE "1Q_t_1568-1577_46"
    INDEX 01 01:01:75
  TRACK 47 AUDIO
    TITLE "1Q_t_1568-1577_47"
    INDEX 01 01:02:07
  TRACK 48 AUDIO
    TITLE "1Q_t_1568-1577_48"
    INDEX 01 01:06:17
  TRACK 49 AUDIO
    TITLE "1Q_t_1568-1577_49"
    INDEX 01 01:06:62
  TRACK 50 AUDIO
    TITLE "1Q_t_1568-1577_50"
    INDEX 01 01:08:02
  TRACK 51 AUDIO
    TITLE "1Q_t_1568-1577_51"
    INDEX 01 01:08:10
  TRACK 52 AUDIO
    TITLE "1Q_t_1568-1577_52"
    INDEX 01 01:10:56
  TRACK 53 AUDIO
    TITLE "1Q_t_1568-1577_53"
    INDEX 01 01:10:64
  TRACK 54 AUDIO
    TITLE "1Q_t_1568-1577_54"
    INDEX 01 01:13:64
  TRACK 55 AUDIO
    TITLE "1Q_t_1568-1577_55"
    INDEX 01 01:14:34
  TRACK 56 AUDIO
    TITLE "1Q_t_1568-1577_56"
    INDEX 01 01:15:47
  TRACK 57 AUDIO
    TITLE "1Q_t_1568-1577_57"
    INDEX 01 01:15:61
  TRACK 58 AUDIO
    TITLE "1Q_t_1568-1577_58"
    INDEX 01 01:18:03
  TRACK 59 AUDIO
    TITLE "1Q_t_1568-1577_59"
    INDEX 01 01:18:10
  TRACK 60 AUDIO
    TITLE "1Q_t_1568-1577_60"
    INDEX 01 01:22:22
